<?xml version="1.0" encoding="utf-8"?>
<!-- Generator: Adobe Illustrator 24.0.1, SVG Export Plug-In . SVG Version: 6.00 Build 0)  -->
<svg version="1.1" id="Layer_1" xmlns="http://www.w3.org/2000/svg" xmlns:xlink="http://www.w3.org/1999/xlink" x="0px" y="0px"
	 viewBox="0 0 324.2 490.7" style="enable-background:new 0 0 324.2 490.7;" xml:space="preserve">
<style type="text/css">
	.st0{fill:#E5221E;}
	.st1{fill:#E5221E;stroke:#F3E600;stroke-width:5;stroke-miterlimit:10;}
	.st2{fill:#E5201C;}
	.st3{fill:#D42E16;}
	.st4{fill:#00A19A;stroke:#F6A218;stroke-width:3;stroke-miterlimit:10;}
	.st5{fill:#F8C2C2;}
	.st6{fill:#1E1717;}
	.st7{fill:#1E1A1A;}
	.st8{fill:#0A0809;}
	.st9{fill:#FFFFFE;}
	.st10{opacity:0.8;}
	.st11{fill:#8B8C8C;}
	.st12{fill:#F4A8AC;}
	.st13{fill:none;stroke:#060607;stroke-width:3.0047;stroke-linecap:round;stroke-linejoin:round;}
	.st14{fill:#E5242A;}
	.st15{fill:#FFED43;}
	.st16{fill:#75B72A;stroke:#F3E600;stroke-width:0.75;stroke-miterlimit:10;}
	.st17{fill:#E51F20;}
	.st18{fill:#DEDC00;}
	.st19{fill:#F7F7F2;}
	.st20{fill:#F3E600;}
	.st21{fill:#64B32F;stroke:#F3E627;stroke-width:2;stroke-miterlimit:10;}
	.st22{fill:#F8F7F7;}
	.st23{fill:#040506;}
	.st24{fill:#E84921;}
	.st25{fill:#BA3020;}
</style>
<path class="st0" d="M240.7,68.8c0.3-34.2-33.4-62.2-75.4-62.7c-42-0.4-76.3,27-76.7,61.1c-0.3,34.2,33.4,62.2,75.4,62.7
	C206,130.4,240.4,103,240.7,68.8z"/>
<path class="st1" d="M107.9,80.1"/>
<path class="st2" d="M248.8,369.9c0,16.8-36.9,30.4-82.4,30.4c-45.5,0-82.4-13.6-82.4-30.4c0-16.8,36.9-30.4,82.4-30.4
	C211.9,339.5,248.8,353.1,248.8,369.9z"/>
<g>
	<path class="st3" d="M261.6,354.5c0,6.2-0.8,12.7-1.9,14.3c-1,1.7-11.5,3-17.8,3H81.8c-6.2,0-13.2-0.6-15.5-1.3
		c-2.3-0.7-4.1-9.8-4.1-16c0,0,0-14.1,0-22.6c0-7.7,0-15.2,0-15.2c0-6.2,0-16.4-0.1-22.7c0,0-0.2-22.5,11-44.3
		c11.8-23,27.9-33.6,27.9-33.6c5.2-3.4,14.6-6.2,20.8-6.2h85c6.2,0,15.5,2.9,20.7,6.4c0,0,15.6,10.8,25.9,33.2
		c10.3,22.4,9.1,40.3,9.1,40.3c-0.4,6.2-0.8,16.4-0.8,22.7c0,0,0,8.7,0,15.4C261.6,337.4,261.6,354.5,261.6,354.5z"/>
</g>
<ellipse class="st4" cx="166.4" cy="324.7" rx="66.7" ry="48.8"/>
<path class="st4" d="M114.8,354.6c7.9-0.3,13.9-10.4,13.5-22.7c-0.4-12.2-7.2-21.9-15.1-21.6c-7.9,0.3-13.9,10.4-13.5,22.7
	S106.9,354.9,114.8,354.6z"/>
<path class="st4" d="M137.9,351.9c7.9-0.3,13.9-10.4,13.5-22.7c-0.4-12.2-7.2-21.9-15.1-21.6c-7.9,0.3-13.9,10.4-13.5,22.7
	C123.2,342.5,130,352.2,137.9,351.9z"/>
<path class="st1" d="M194.2,60.6c0-24.2-13.3-43.9-29.7-43.9c-16.4,0-29.7,19.6-29.7,43.9c0,24.2,13.3,43.9,29.7,43.9
	C181,104.5,194.2,84.8,194.2,60.6z"/>
<path class="st1" d="M134.3,70.5c0-19.6-10.3-35.4-22.9-35.4c-12.7,0-22.9,15.9-22.9,35.4c0,19.6,10.3,35.4,22.9,35.4
	C124,105.9,134.3,90.1,134.3,70.5z"/>
<path class="st1" d="M240.3,70.5c-0.2-19.7-10.7-35.6-23.4-35.4c-12.7,0.1-22.8,16.2-22.5,36c0.2,19.7,10.7,35.6,23.4,35.4
	C230.4,106.4,240.5,90.3,240.3,70.5z"/>
<path class="st4" d="M194.3,349.4c7.9-0.3,13.9-10.4,13.5-22.7c-0.4-12.2-7.2-21.9-15.1-21.6c-7.9,0.3-13.9,10.4-13.5,22.7
	S186.4,349.7,194.3,349.4z"/>
<path class="st5" d="M240.2,206.5c0,6.6-4.5,12-10,12H95.8c-5.5,0-10-5.4-10-12v-115c0-6.6,4.5-12,10-12h134.3c5.5,0,10,5.4,10,12
	V206.5z"/>
<path class="st5" d="M231.3,170c0,0,21.9,28.6,33.3,6c0,0-13.4-32.2-4-53.9c0,0-15.9-26.4-32.3,12.3L231.3,170z"/>
<path class="st5" d="M93.3,171.4c0,0-25.1,27.4-35.6,3.9c0,0,16.3-31.5,7.8-54.1c0,0,18.6-25.6,33.4,14.5L93.3,171.4z"/>
<path class="st4" d="M167.5,355.6c9.6-0.3,16.8-14.4,16.2-31.5c-0.6-17-8.9-30.6-18.4-30.2c-9.6,0.3-16.8,14.4-16.2,31.5
	C149.7,342.4,158,355.9,167.5,355.6z"/>
<path class="st6" d="M81.3,159.3c-5.2-10.2-1.7-13.5-2-23.7c0.3,10.2,12.2,20.2-3,26.7"/>
<path class="st6" d="M245.3,160c4.8-10.9,1.6-14.4,1.9-25.4c-0.3,10.9-11.2,21.6,2.7,28.6"/>
<path class="st7" d="M140.5,126.1c0,0-7.9-25-42.9-14.3L77.9,96.9l13.8,22.9c-9.4,7.8,15.2-11.6,52.2,16.8"/>
<path class="st7" d="M189.5,125c0,0,9.1-24,45-12.7l20.9-13.9l-15.1,21.9c9.5,7.9-15.3-11.7-54.8,14.9"/>
<path class="st4" d="M219.6,351.9c7.9-0.3,13.9-10.4,13.5-22.7c-0.4-12.2-7.2-21.9-15.1-21.6c-7.9,0.3-13.9,10.4-13.5,22.7
	C205,342.5,211.7,352.2,219.6,351.9z"/>
<path class="st8" d="M138.2,198.5c0,0,23.5,22.3,52.6,0c-18.6,8.3-18.2,7.9-26.3,8.2C156.4,207.1,138.2,198.5,138.2,198.5z"/>
<path d="M141.5,147.2c0,6.4-4.7,11.5-10.6,11.5c-5.8,0-10.6-5.2-10.6-11.5c0-6.4,4.7-11.5,10.6-11.5
	C136.7,135.6,141.5,140.8,141.5,147.2z"/>
<path class="st9" d="M128.5,141.6c0,1.2-0.9,2.3-2,2.3s-2-1-2-2.3c0-1.2,0.9-2.3,2-2.3S128.5,140.3,128.5,141.6z"/>
<ellipse cx="198.7" cy="147.2" rx="10.6" ry="11.5"/>
<path class="st8" d="M206.7,178.4c-10.7-6.9-37.9-3-37.9-3s-9.4-3.4,0-8c0,0,29.6-9.1,45.4,8.4c4.7,5.3,4.3,42.3,14.7,27.9
	c0,0-7.2,14.8-12.7,6.5C211.5,203.3,211.7,181.6,206.7,178.4z"/>
<path class="st8" d="M121.5,178.6c10.9-6.8,38.7-3,38.7-3s9.6-3.4,0-7.9c0,0-30.3-9-46.3,8.3c-4.8,5.2-4.4,41.7-15,27.5
	c0,0,7.4,14.6,13,6.5C116.6,203.3,116.4,181.9,121.5,178.6z"/>
<g class="st10">
	
		<image style="overflow:visible;opacity:0.84;" width="310" height="283" xlink:href="44C9C97A.png"  transform="matrix(0.24 0 0 0.24 127.3646 136.8177)">
	</image>
	<g>
		<path class="st11" d="M176.2,170.7c0,4.6-5.2,8.3-11.7,8.3c-6.4,0-11.7-3.7-11.7-8.3c0-4.6,5.2-8.3,11.7-8.3
			C171,162.3,176.2,166.1,176.2,170.7z"/>
	</g>
</g>
<path class="st9" d="M195.9,141.6c0,1.2-0.9,2.3-2,2.3c-1.1,0-2-1-2-2.3c0-1.2,0.9-2.3,2-2.3C195,139.3,195.9,140.3,195.9,141.6z"/>
<g>
	
		<image style="overflow:visible;opacity:0.84;" width="310" height="283" xlink:href="44C9C97E.png"  transform="matrix(0.24 0 0 0.24 127.39 136.8177)">
	</image>
	<g>
		<path class="st12" d="M176.2,170.7c0,4.6-5.2,8.3-11.7,8.3c-6.4,0-11.7-3.7-11.7-8.3c0-4.6,5.2-8.3,11.7-8.3
			C171,162.3,176.2,166.1,176.2,170.7z"/>
	</g>
</g>
<g>
	<g>
		<polyline class="st13" points="95.7,86.2 94.9,89 92.1,80.7 89.7,89 86.9,80.7 84.6,89 81.7,80.7 79.4,89 76.5,80.7 74.2,89 
			71.4,80.7 69,89 66.2,80.7 63.8,89 61,80.7 58.6,89 55.8,80.7 53.4,89 50.6,80.7 48.2,89 		"/>
	</g>
</g>
<g>
	<g>
		<polyline class="st13" points="278.8,86.2 278,89 275.2,80.7 272.8,89 270,80.7 267.6,89 264.8,80.7 262.4,89 259.6,80.7 
			257.2,89 254.4,80.7 252,89 249.2,80.7 246.9,89 244,80.7 241.7,89 238.8,80.7 236.5,89 233.7,80.7 231.3,89 		"/>
	</g>
</g>
<path class="st14" d="M80.2,90.5"/>
<path class="st15" d="M85.3,98.4c0,0,52.7-20.9,153.7-1.1c0,0,11.3-9.8-0.1-17.4c0,0-57.5-20.2-153.7,1C85.2,81,77.6,87.9,85.3,98.4
	z"/>
<polyline points="61.1,339.3 261.5,338.5 261.6,353.6 61.1,354.4 "/>
<path class="st16" d="M171,57c0,4-2.9,7.2-6.5,7.2c-3.6,0-6.5-3.2-6.5-7.2c0-4,2.9-7.2,6.5-7.2C168.1,49.8,171,53,171,57z"/>
<path class="st17" d="M315,79.5c0,16.1-13.2,29.2-29.6,29.2c-16.3,0-29.6-13.1-29.6-29.2c0-16.1,13.2-29.2,29.6-29.2
	C301.7,50.3,315,63.4,315,79.5z"/>
<path class="st18" d="M307.9,79.5c0,11.6-10.1,21.1-22.5,21.1c-12.4,0-22.5-9.4-22.5-21.1s10.1-21.1,22.5-21.1
	C297.8,58.4,307.9,67.8,307.9,79.5z"/>
<path class="st19" d="M302.1,93.6c0,0-9.1-13.9,0-28.2c0,0-14.7,10.3-33.3,0c0,0,12.8,14,0,28.2C268.8,93.6,288.9,85.1,302.1,93.6z"
	/>
<path class="st17" d="M66.7,84.8c0,16.1-13.2,29.2-29.6,29.2c-16.3,0-29.6-13.1-29.6-29.2c0-16.1,13.2-29.2,29.6-29.2
	C53.4,55.7,66.7,68.7,66.7,84.8z"/>
<path class="st18" d="M59.6,84.8c0,11.6-10.1,21.1-22.5,21.1c-12.4,0-22.5-9.4-22.5-21.1s10.1-21.1,22.5-21.1
	C49.5,63.7,59.6,73.2,59.6,84.8z"/>
<path class="st19" d="M53.7,98.9c0,0-9.1-13.9,0-28.2c0,0-14.7,10.3-33.3,0c0,0,12.8,14,0,28.2C20.5,98.9,40.6,90.4,53.7,98.9z"/>
<path class="st20" d="M258.7,371.7c3.4-0.2,5.7-19.5,5.7-19.5l-206.2,2.2c0,0,2.2,19.2,6.3,19.2c40.3-0.4,57.8,0.9,98.4-0.1
	C191.8,372.8,201.9,374.6,258.7,371.7z"/>
<polyline class="st2" points="107.5,389.5 111.3,463.2 133,463.2 137.6,391.1 "/>
<polyline class="st2" points="193.9,389.5 197.8,463.2 219.5,463.2 224.1,391.1 "/>
<path class="st20" d="M141.8,419.2c0,4-1.9,7.2-4.2,7.2h-30.1c-2.3,0-4.2-3.2-4.2-7.2l0,0c0-3.9,1.9-7.2,4.2-7.2h30.1
	C139.9,412,141.8,415.2,141.8,419.2L141.8,419.2z"/>
<path class="st20" d="M228.3,419.2c0,4-1.9,7.2-4.2,7.2H194c-2.3,0-4.2-3.2-4.2-7.2l0,0c0-3.9,1.9-7.2,4.2-7.2h30.1
	C226.4,412,228.3,415.2,228.3,419.2L228.3,419.2z"/>
<path class="st21" d="M182.6,342.2c0,5.4-7.2,9.7-16.1,9.7c-8.9,0-16.1-4.4-16.1-9.7c0-5.4,7.2-9.7,16.1-9.7
	C175.3,332.5,182.6,336.8,182.6,342.2z"/>
<path class="st22" d="M109.4,426.3l1.9,36.8L109.4,426.3z"/>
<polyline class="st23" points="135.4,426.3 133,463.2 111.3,463.2 110.9,455.7 109.4,426.3 "/>
<path class="st23" d="M99.3,481.6l12-18.5L99.3,481.6z"/>
<path class="st23" d="M133,481.6v-18.5V481.6z"/>
<path class="st3" d="M229.7,218.1c0,0,87.5,44.3,90.5,145.5h-25.1c0,0-36.2-100.2-44.2-97.9"/>
<polyline class="st23" points="99.3,481.6 133,481.6 133,463.2 111.3,463.2 "/>
<polyline class="st23" points="232.5,484.5 197.2,484.5 197.2,465.1 219.9,465.1 "/>
<path class="st24" d="M133,484.6c0,1.6-0.9,2.9-1.9,2.9h-29.8c-1.1,0-1.9-1.3-1.9-2.9l0,0c0-1.6,0.9-2.9,1.9-2.9h29.8
	C132.1,481.6,133,482.9,133,484.6L133,484.6z"/>
<path class="st25" d="M282.5,371.9c-1.2,11.9,6.6,22.3,17.5,23.2c10.8,0.9,20.5-8,21.7-19.9c1.2-11.9-6.6-22.3-17.5-23.2
	C293.4,351.1,283.7,360,282.5,371.9z"/>
<polyline class="st23" points="194.6,426.3 197.1,465.1 219.9,465.1 220.3,457.2 221.9,426.3 "/>
<path class="st24" d="M196.6,487.6c0,1.7,0.9,3.1,2,3.1h31.2c1.1,0,2-1.4,2-3.1l0,0c0-1.7-0.9-3.1-2-3.1h-31.2
	C197.5,484.5,196.6,485.9,196.6,487.6L196.6,487.6z"/>
<path class="st20" d="M323.4,354.9c0.1,4-1.8,7.4-4.4,7.4l-33.3,1.1c-2.6,0.1-4.8-3.1-5-7.1l0,0c-0.1-4,1.8-7.4,4.4-7.5l33.3-1.1
	C321.1,347.7,323.3,350.8,323.4,354.9L323.4,354.9z"/>
<path class="st3" d="M100.2,220.6c0,0-87.5,44.3-90.5,145.5h25.1c0,0,36.2-100.2,44.2-97.9"/>
<path class="st25" d="M47.4,374.3c1.2,11.9-6.6,22.3-17.5,23.2c-10.8,0.9-20.5-8-21.7-19.9c-1.2-11.9,6.6-22.3,17.5-23.2
	C36.5,353.5,46.3,362.4,47.4,374.3z"/>
<path class="st20" d="M6.5,357.3c-0.1,4,1.8,7.4,4.4,7.4l33.3,1.1c2.6,0.1,4.8-3.1,5-7.1l0,0c0.1-4-1.8-7.4-4.4-7.5l-33.3-1.1
	C8.9,350.1,6.6,353.3,6.5,357.3L6.5,357.3z"/>
</svg>
